# xmcd
#
# Track frame offsets: 
#        150
#        18147
#        42185
#        63805
#
# Disc length: 1153 seconds
#
# Revision: 0
# Processed by: cddbd v1.5.2PL0 Copyright (c) Steve Scherf et al.
# Submitted via: ExactAudioCopyFreeDBPlugin 1.0
#
DISCID=23047f04
DTITLE=Snoop Doggy Dogg - Tha Doggfather (Single)
DYEAR=1997
DGENRE=Rap
TTITLE0=Tha Doggfather (Album Version)
TTITLE1=Tha Doggfather (Remix)
TTITLE2=Midnite Love
TTITLE3=Snoop Bounce (Roc N Roll Remix)
EXTD=
EXTT0=
EXTT1=
EXTT2=
EXTT3=
PLAYORDER=
